<?xml version="1.0" standalone="no"?>
<!DOCTYPE svg PUBLIC "-//W3C//DTD SVG 20010904//EN"
 "http://www.w3.org/TR/2001/REC-SVG-20010904/DTD/svg10.dtd">
<svg version="1.0" xmlns="http://www.w3.org/2000/svg"
 width="512.000000pt" height="512.000000pt" viewBox="0 0 512.000000 512.000000"
 preserveAspectRatio="xMidYMid meet">
<metadata>
Created by potrace 1.14, written by Peter Selinger 2001-2017
</metadata>
<g transform="translate(0.000000,512.000000) scale(0.100000,-0.100000)"
fill="#000000" stroke="none">
<path d="M793 5105 c-332 -60 -620 -300 -733 -612 -63 -176 -61 -88 -58 -1974
l3 -1714 22 -76 c104 -364 365 -619 723 -706 71 -17 167 -18 1815 -18 1629 0
1744 1 1809 18 366 94 638 368 723 727 17 70 18 183 18 1810 0 1627 -1 1740
-18 1810 -89 379 -395 669 -774 735 -74 13 -319 15 -1772 14 -1336 -1 -1701
-4 -1758 -14z m2074 -977 c22 -15 51 -44 64 -65 l24 -38 3 -492 3 -492 244 -3
244 -3 30 -29 c34 -32 46 -71 36 -117 -5 -22 -124 -152 -439 -482 -238 -249
-441 -459 -451 -467 -10 -9 -38 -15 -65 -15 -27 0 -55 6 -65 15 -10 8 -213
218 -451 467 -315 330 -434 460 -439 482 -10 46 2 85 36 117 l30 29 245 3 244
3 0 472 c0 301 4 486 11 510 13 47 76 113 121 126 19 6 143 9 284 8 l251 -2
40 -27z m1423 -2544 c39 -12 66 -29 106 -68 63 -64 84 -123 84 -237 0 -110
-23 -172 -85 -234 -92 -93 72 -85 -1834 -85 -1906 0 -1745 -7 -1837 84 -39 40
-56 67 -68 106 -20 69 -20 191 0 260 21 71 100 152 170 174 43 13 266 15 1730
15 1505 1 1686 -1 1734 -15z"/>
</g>
</svg>
